<svg width="150" height="150" viewBox="0 0 150 150" fill="none" xmlns="http://www.w3.org/2000/svg">
<circle cx="75" cy="75" r="75" fill="white"/>
<path d="M55 75C64.6719 75 72.5 67.1719 72.5 57.5C72.5 47.8281 64.6719 40 55 40C45.3281 40 37.5 47.8281 37.5 57.5C37.5 67.1719 45.3281 75 55 75ZM67 80H65.7031C62.4531 81.5625 58.8438 82.5 55 82.5C51.1562 82.5 47.5625 81.5625 44.2969 80H43C33.0625 80 25 88.0625 25 98V102.5C25 106.641 28.3594 110 32.5 110H77.5C81.6406 110 85 106.641 85 102.5V98C85 88.0625 76.9375 80 67 80ZM100 75C108.281 75 115 68.2812 115 60C115 51.7188 108.281 45 100 45C91.7188 45 85 51.7188 85 60C85 68.2812 91.7188 75 100 75ZM107.5 80H106.906C104.734 80.75 102.438 81.25 100 81.25C97.5625 81.25 95.2656 80.75 93.0938 80H92.5C89.3125 80 86.375 80.9219 83.7969 82.4062C87.6094 86.5156 90 91.9688 90 98V104C90 104.344 89.9219 104.672 89.9062 105H117.5C121.641 105 125 101.641 125 97.5C125 87.8281 117.172 80 107.5 80Z" fill="#26BC9F"/>
</svg>
