<svg width="150" height="150" viewBox="0 0 150 150" fill="none" xmlns="http://www.w3.org/2000/svg">
<circle cx="75" cy="75" r="75" fill="white"/>
<path d="M122.24 58.9379L78.6555 45.5473C76.2805 44.8176 73.718 44.8176 71.3445 45.5473L27.7586 58.9379C24.0805 60.0676 24.0805 64.9316 27.7586 66.0613L35.357 68.3957C33.6898 70.4566 32.6648 72.9707 32.5633 75.7238C31.0586 76.5863 29.9992 78.1426 29.9992 80.0004C29.9992 81.6848 30.8867 83.102 32.1648 84.0082L28.1758 101.958C27.8289 103.519 29.0164 105 30.6148 105H39.382C40.982 105 42.1695 103.519 41.8227 101.958L37.8336 84.0082C39.1117 83.102 39.9992 81.6848 39.9992 80.0004C39.9992 78.1926 38.9883 76.6801 37.5523 75.802C37.6711 73.4551 38.8711 71.3801 40.7852 70.0645L71.343 79.4535C72.7586 79.8879 75.4742 80.4301 78.6539 79.4535L122.24 66.0629C125.92 64.9316 125.92 60.0691 122.24 58.9379V58.9379ZM80.1227 84.2332C75.6648 85.602 71.8664 84.8457 69.8742 84.2332L47.2148 77.2723L44.9992 95.0004C44.9992 100.524 58.4305 105 74.9992 105C91.568 105 104.999 100.524 104.999 95.0004L102.784 77.2707L80.1227 84.2332V84.2332Z" fill="#26BC9F"/>
</svg>
