<svg width="150" height="150" viewBox="0 0 150 150" fill="none" xmlns="http://www.w3.org/2000/svg">
<circle cx="75" cy="75" r="75" fill="white"/>
<g clip-path="url(#clip0)">
<path d="M121.97 92.2735L105 85.0001V115H122.5C123.881 115 125 113.881 125 112.5V96.8688C125 95.8905 124.713 94.9336 124.174 94.1168C123.636 93.3 122.87 92.6591 121.97 92.2735ZM25 96.8688V112.5C25 113.881 26.1187 115 27.5 115H45V85.0001L28.0297 92.2735C27.1305 92.6591 26.3641 93.3 25.8256 94.1168C25.2871 94.9336 25 95.8905 25 96.8688V96.8688ZM97.5719 73.5438L90 69.0001V51.036C90 49.7095 89.4734 48.4392 88.5344 47.5001L76.7672 35.7329C75.7906 34.7563 74.2078 34.7563 73.2328 35.7329L61.4656 47.5001C60.5281 48.4376 60 49.7095 60 51.036V69.0001L52.4281 73.5438C51.6876 73.988 51.0747 74.6163 50.6492 75.3677C50.2237 76.1191 50 76.9678 50 77.8313V115H65V100C65 94.4767 69.4781 90.0001 75 90.0001C80.5219 90.0001 85 94.4767 85 100V115H100V77.8313C100 76.0751 99.0781 74.447 97.5719 73.5438Z" fill="#26BC9F"/>
</g>
<defs>
<clipPath id="clip0">
<rect width="100" height="80" fill="white" transform="translate(25 35)"/>
</clipPath>
</defs>
</svg>
